<svg xmlns="http://www.w3.org/2000/svg" xmlns:xlink="http://www.w3.org/1999/xlink" width="650" height="520" viewBox="0 0 650 520">
  <defs>
    <linearGradient id="development-c" x1="50%" x2="50%" y1="0%" y2="100%">
      <stop offset="0%" stop-color="#89F6E9"/>
      <stop offset="100%" stop-color="#7CE5D8"/>
    </linearGradient>
    <path id="development-b" d="M-7.95807864e-13,303.558162 C-7.95807864e-13,301.932713 1.31555957,299.855545 2.93950064,298.918033 L24.5279713,286.45487 C26.1514126,285.517646 27.4674719,286.075063 27.4674719,287.701012 L27.4674719,309.316179 C27.4674719,310.941628 26.1519123,313.018795 24.5279713,313.956307 L2.93950064,326.419471 C1.31605927,327.356694 -7.95807864e-13,326.799278 -7.95807864e-13,325.173328 L-7.95807864e-13,303.558162 Z"/>
    <filter id="development-a" width="438.6%" height="408.3%" x="-169.3%" y="-77.1%" filterUnits="objectBoundingBox">
      <feOffset dy="48" in="SourceAlpha" result="shadowOffsetOuter1"/>
      <feGaussianBlur in="shadowOffsetOuter1" result="shadowBlurOuter1" stdDeviation="7.5"/>
      <feColorMatrix in="shadowBlurOuter1" values="0 0 0 0 0.115288691   0 0 0 0 0.0721044462   0 0 0 0 0.20405506  0 0 0 0.03125 0"/>
    </filter>
    <path id="development-e" d="M233,491.558162 C233,489.932713 234.31556,487.855545 235.939501,486.918033 L257.527971,474.45487 C259.151413,473.517646 260.467472,474.075063 260.467472,475.701012 L260.467472,497.316179 C260.467472,498.941628 259.151912,501.018795 257.527971,501.956307 L235.939501,514.419471 C234.316059,515.356694 233,514.799278 233,513.173328 L233,491.558162 Z"/>
    <filter id="development-d" width="438.6%" height="408.3%" x="-169.3%" y="-77.1%" filterUnits="objectBoundingBox">
      <feOffset dy="48" in="SourceAlpha" result="shadowOffsetOuter1"/>
      <feGaussianBlur in="shadowOffsetOuter1" result="shadowBlurOuter1" stdDeviation="7.5"/>
      <feColorMatrix in="shadowBlurOuter1" values="0 0 0 0 0.115288691   0 0 0 0 0.0721044462   0 0 0 0 0.20405506  0 0 0 0.03125 0"/>
    </filter>
    <path id="development-g" d="M621,237.558162 C621,235.932713 622.31556,233.855545 623.939501,232.918033 L645.527971,220.45487 C647.151413,219.517646 648.467472,220.075063 648.467472,221.701012 L648.467472,243.316179 C648.467472,244.941628 647.151912,247.018795 645.527971,247.956307 L623.939501,260.419471 C622.316059,261.356694 621,260.799278 621,259.173328 L621,237.558162 Z"/>
    <filter id="development-f" width="438.6%" height="408.3%" x="-169.3%" y="-77.1%" filterUnits="objectBoundingBox">
      <feOffset dy="48" in="SourceAlpha" result="shadowOffsetOuter1"/>
      <feGaussianBlur in="shadowOffsetOuter1" result="shadowBlurOuter1" stdDeviation="7.5"/>
      <feColorMatrix in="shadowBlurOuter1" values="0 0 0 0 0.115288691   0 0 0 0 0.0721044462   0 0 0 0 0.20405506  0 0 0 0.03125 0"/>
    </filter>
    <linearGradient id="development-h" x1="96.798%" x2="0%" y1="83.636%" y2="22.968%">
      <stop offset="0%" stop-color="#F7F9FD"/>
      <stop offset="100%" stop-color="#D3D5E9"/>
    </linearGradient>
    <linearGradient id="development-i" x1="5.235%" y1="0%" y2="100%">
      <stop offset="0%" stop-color="#F7F9FD"/>
      <stop offset="100%" stop-color="#EBECF8"/>
    </linearGradient>
    <path id="development-k" d="M49.9782832,1.99176217 C49.9782832,3.09683046 50.7677826,4.43583385 51.7171929,4.96876498 L90.5841508,26.7858988 C91.5445241,27.3249838 92.3230605,26.8579777 92.3230605,25.7610953 L92.3230605,25.6894958 C92.3230605,24.5844275 91.5335611,23.2454241 90.5841508,22.712493 L51.7171929,0.895359121 C50.7568196,0.356274162 49.9782832,0.82328024 49.9782832,1.92016261 L49.9782832,1.99176217 Z"/>
    <filter id="development-j" width="227.5%" height="305%" x="-89.7%" y="-148.1%" filterUnits="objectBoundingBox">
      <feOffset dx="-11" dy="-12" in="SourceAlpha" result="shadowOffsetOuter1"/>
      <feGaussianBlur in="shadowOffsetOuter1" result="shadowBlurOuter1" stdDeviation="7"/>
      <feColorMatrix in="shadowBlurOuter1" values="0 0 0 0 0.290925922   0 0 0 0 0.273331848   0 0 0 0 0.356903699  0 0 0 0.0850033967 0"/>
    </filter>
    <path id="development-m" d="M3.65929509e-13,25.5156147 C3.65929509e-13,27.7264707 1.55729261,30.3928765 3.48324412,31.4739681 L38.8615331,51.3328124 C40.7852757,52.4126641 42.3447773,51.4882561 42.3447773,49.2849479 L42.3447773,26.3063766 C42.3447773,24.0955206 40.7874846,21.4291149 38.8615331,20.3480233 L3.48324412,0.489178954 C1.55950151,-0.590672729 3.65929509e-13,0.333735231 3.65929509e-13,2.53704343 L3.65929509e-13,25.5156147 Z"/>
    <filter id="development-l" width="303.1%" height="266.2%" x="-82.7%" y="-96.6%" filterUnits="objectBoundingBox">
      <feOffset dx="8" dy="-7" in="SourceAlpha" result="shadowOffsetOuter1"/>
      <feGaussianBlur in="shadowOffsetOuter1" result="shadowBlurOuter1" stdDeviation="13"/>
      <feColorMatrix in="shadowBlurOuter1" values="0 0 0 0 0.290925922   0 0 0 0 0.273331848   0 0 0 0 0.356903699  0 0 0 0.149739583 0"/>
    </filter>
    <linearGradient id="development-n" x1="50%" x2="50%" y1="9.457%" y2="95.218%">
      <stop offset="0%" stop-color="#81F4E6"/>
      <stop offset="100%" stop-color="#5EE9D9"/>
    </linearGradient>
    <linearGradient id="development-o" x1="73.763%" x2="62.363%" y1="74.077%" y2="14.875%">
      <stop offset="0%" stop-color="#F7F9FD"/>
      <stop offset="100%" stop-color="#D3D5E9"/>
    </linearGradient>
    <linearGradient id="development-p" x1="65.024%" x2="12.49%" y1="27.42%" y2="46.257%">
      <stop offset="0%" stop-color="#F7F9FD"/>
      <stop offset="100%" stop-color="#D3D5E9"/>
    </linearGradient>
    <linearGradient id="development-q" x1="100%" x2="58.143%" y1="58.942%" y2="14.945%">
      <stop offset="0%" stop-color="#F7F9FD"/>
      <stop offset="100%" stop-color="#D3D5E9"/>
    </linearGradient>
    <linearGradient id="development-r" x1="57.783%" x2="63.158%" y1="18.459%" y2="75.239%">
      <stop offset="0%" stop-color="#57DECE"/>
      <stop offset="100%" stop-color="#70E8BB"/>
    </linearGradient>
    <polygon id="development-s" points=".606 .441 7.212 .441 7.212 3.339 .606 3.339 .606 .441"/>
    <polygon id="development-u" points="45.445 42.194 .347 42.194 .347 .063 45.445 .063"/>
    <linearGradient id="development-v" x1="104.194%" x2="15.193%" y1="62.132%" y2="72.423%">
      <stop offset="0%" stop-color="#52F1DE"/>
      <stop offset="100%" stop-color="#40D9C6"/>
    </linearGradient>
    <path id="development-y" d="M422.170718,144.636652 C425.780243,142.831866 428.70634,138.4427 428.70634,134.833175 C428.70634,131.223651 425.780243,129.760622 422.170718,131.565409 C418.561194,133.370196 415.635097,137.759362 415.635097,141.368886 C415.635097,144.97841 418.561194,146.441439 422.170718,144.636652 Z"/>
    <filter id="development-x" width="207.1%" height="195.8%" x="-68.9%" y="-47.9%" filterUnits="objectBoundingBox">
      <feOffset dx="-2" in="SourceAlpha" result="shadowOffsetOuter1"/>
      <feGaussianBlur in="shadowOffsetOuter1" result="shadowBlurOuter1" stdDeviation="2"/>
      <feColorMatrix in="shadowBlurOuter1" values="0 0 0 0 0   0 0 0 0 0   0 0 0 0 0  0 0 0 0.100996377 0"/>
    </filter>
  </defs>
  <g fill="none" fill-rule="evenodd">
    <g transform="matrix(-1 0 0 1 27.467 0)">
      <use fill="#000" filter="url(#development-a)" xlink:href="#development-b"/>
      <use fill="url(#development-c)" xlink:href="#development-b"/>
    </g>
    <g transform="matrix(-1 0 0 1 493.467 0)">
      <use fill="#000" filter="url(#development-d)" xlink:href="#development-e"/>
      <use fill="url(#development-c)" xlink:href="#development-e"/>
    </g>
    <use fill="#000" filter="url(#development-f)" xlink:href="#development-g"/>
    <use fill="url(#development-c)" xlink:href="#development-g"/>
    <g transform="matrix(-1 0 0 1 459 4)">
      <path fill="url(#development-h)" d="M-47.5124808,59.9532966 C-50.9301074,54.278448 -48.3318421,49.6780742 -41.7017732,49.6780742 L70.5499317,49.6780742 C74.9680184,49.6780742 80.3961395,52.7442125 82.6809589,56.5380747 L108.840396,99.9749007 C112.258023,105.649749 109.659758,110.250123 103.029689,110.250123 L-9.22201613,110.250123 C-13.6401028,110.250123 -19.068224,107.183985 -21.3530434,103.390123 L-47.5124808,59.9532966 Z" transform="rotate(-90 30.664 79.964)"/>
      <path fill="url(#development-i)" d="M-42.8991009,62.2599866 C-46.3167274,56.585138 -43.7184621,51.9847642 -37.0883933,51.9847642 L75.1633117,51.9847642 C79.5813984,51.9847642 85.0095195,55.0509025 87.2943389,58.8447647 L113.453776,102.281591 C116.871403,107.956439 114.273138,112.556813 107.643069,112.556813 L-4.60863614,112.556813 C-9.02672285,112.556813 -14.454844,109.490675 -16.7396634,105.696813 L-42.8991009,62.2599866 Z" transform="rotate(-90 35.277 82.27)"/>
    </g>
    <g transform="translate(486 33)">
      <g opacity=".833" transform="matrix(1 0 0 -1 0 27.681)">
        <use fill="#000" filter="url(#development-j)" xlink:href="#development-k"/>
        <use fill="#7FECE1" xlink:href="#development-k"/>
      </g>
      <g transform="translate(0 27.365)">
        <g opacity=".833" transform="matrix(1 0 0 -1 0 51.822)">
          <use fill="#000" filter="url(#development-l)" xlink:href="#development-m"/>
          <use fill="#5CE0CB" xlink:href="#development-m"/>
        </g>
        <path fill="#2CC3B1" d="M26.3073855,17.9550801 C24.9010089,18.8079012 23.9887563,19.9796926 23.4513146,20.9757252 C22.9138729,20.6314975 22.0016204,20.5660786 20.5953957,21.4188075 C19.188107,22.2721816 17.8780929,23.9607344 17.2579679,25.7205056 C16.6123083,27.5529097 16.8909086,28.9888451 18.0031819,29.5620648 C20.6674396,30.9352292 23.0219388,31.626383 23.0453455,31.6331641 C23.160859,31.6667753 23.3061628,31.6303408 23.4513146,31.5423213 C23.5966184,31.4542096 23.7417702,31.3145131 23.8572837,31.140808 C23.8806904,31.1056395 26.2351896,27.5589683 28.8994474,22.9546138 C30.0117206,21.0324382 30.2904729,19.2585264 29.6446613,18.2092652 C29.0246883,17.2014844 27.7146742,17.101706 26.3073855,17.9550801 Z"/>
      </g>
      <g transform="translate(49.978 18.831)">
        <path fill="url(#development-n)" d="M-2.35472369e-14,48.6647098 C-2.0480356e-14,50.8719161 1.55729261,53.5353631 3.48324412,54.6164547 L38.8615331,74.475299 C40.7852757,75.5551507 42.3447773,74.632147 42.3447773,72.434043 L42.3447773,26.3753548 C42.3447773,24.1681486 40.7874846,21.5047015 38.8615331,20.4236099 L3.48324412,0.564765614 C1.55950151,-0.515086069 -9.05993464e-14,0.407917604 -8.75451129e-14,2.60602164 L-2.35472369e-14,48.6647098 Z" opacity=".828" transform="matrix(1 0 0 -1 0 75.04)"/>
        <path fill="#37D7C4" d="M23.5328095,39.9519045 L21.1446583,43.2719836 L18.7567828,42.5304846 C18.4666413,42.4402913 18.0697653,42.574583 17.7068127,42.8869289 C16.1623333,44.2133731 8.45786332,51.0245619 8.45786332,54.8468726 C8.45786332,55.4561146 8.95182092,55.6833841 9.56106288,55.354454 L32.7282537,42.8464714 C33.3374957,42.5175412 33.8314533,41.7568956 33.8314533,41.1476536 C33.8314533,37.3253429 26.1269833,38.8334515 24.5827797,39.1745895 C24.2198271,39.2541603 23.822951,39.548416 23.5328095,39.9519045 Z M28.5708461,28.8312761 C28.5708461,24.7182723 25.2394593,23.1708862 21.1446583,25.3816721 C17.0501331,27.5923091 13.7187462,32.7369315 13.7187462,36.8499353 C13.7187462,40.9634906 17.0501331,42.5114284 21.1446583,40.3007914 C25.2394593,38.0900054 28.5708461,32.9448315 28.5708461,28.8312761 Z"/>
      </g>
    </g>
    <g transform="translate(63)">
      <g transform="scale(1 -1) rotate(60 404.421 4.527)">
        <path fill="url(#development-o)" d="M0.252541226,99.586955 C0.252541226,93.6077563 5.09130772,86.0248121 11.0541224,82.6534276 L152.577712,1.60571468 C158.543261,-1.76721556 163.379293,0.346821005 163.379293,6.32478118 L163.379293,132.924621 C163.379293,138.90382 158.540527,146.486764 152.577712,149.858148 L11.0541224,230.905861 C5.08857385,234.278792 0.252541226,232.164755 0.252541226,226.186795 L0.252541226,99.586955 Z"/>
        <path fill="url(#development-p)" d="M6.6899133,103.303573 C6.6899133,97.3243748 11.5286798,89.7414306 17.4914945,86.3700461 L159.015084,5.32233318 C164.980633,1.94940294 169.816665,4.0634395 169.816665,10.0413997 L169.816665,136.64124 C169.816665,142.620438 164.977899,150.203382 159.015084,153.574767 L17.4914945,234.62248 C11.5259459,237.99541 6.6899133,235.881374 6.6899133,229.903413 L6.6899133,103.303573 Z"/>
        <path fill="#5189B5" d="M23.5871274 154.390649C23.5871274 149.405435 27.6214951 143.083083 32.5930487 140.272159L150.589691 72.6978551C155.563524 69.8856423 159.595612 71.6482405 159.595612 76.6324218L158.308196 134.863326C158.308196 139.84854 154.273828 146.170892 149.302275 148.981816L31.3056323 216.55612C26.3317993 219.368332 22.299711 217.605734 22.299711 212.621553L23.5871274 154.390649zM71.0115813 70.2229845C71.0115813 67.2510555 73.4166644 63.4819934 76.3804498 61.8062647L108.765782 43.4663223C111.730927 41.7898253 114.134651 42.8405959 114.134651 45.8119092L113.367159 80.5261888C113.367159 83.4981178 110.962076 87.2671799 107.998291 88.9429087L75.6129581 107.282851C72.6478139 108.959348 70.2440896 107.908577 70.2440896 104.937264L71.0115813 70.2229845z" opacity=".136"/>
      </g>
      <path fill="url(#development-q)" d="M4.28976447,98.4559115 C4.28976447,94.0333312 7.40571423,88.6864452 11.2606567,86.5069619 L154.254236,5.66214387 C159.058967,2.94567474 162.953972,5.22264656 162.953972,10.7496247 L162.953972,130.319813 L4.28976447,220.024393 L4.28976447,98.4559115 Z"/>
      <g transform="translate(11 14)">
        <path fill="url(#development-r)" d="M0,87.8905081 C0,83.4739666 3.11465239,78.1281614 6.95188335,75.9530883 L143.20818,-1.28161857 C145.130888,-2.37147489 146.68955,-1.46393134 146.68955,0.74117513 L146.68955,116.85137 L0,200 L0,87.8905081 Z"/>
        <path fill="#5894BA" d="M33.3685689,130.969242 C44.4989258,124.660176 53.5218629,107.74646 53.5218629,93.191398 C53.5218629,78.6363363 44.4989258,71.9516353 33.3685689,78.2607006 C22.2382119,84.5697658 13.2152748,101.483482 13.2152748,116.038544 C13.2152748,130.593606 22.2382119,137.278307 33.3685689,130.969242 Z"/>
        <path fill="#3EBAAA" d="M53.1914811,93.3786697 C53.1914811,78.823608 44.168544,72.138907 33.038187,78.4479722 L33.038187,104.802243 L53.1914811,93.3786697 Z" opacity=".567"/>
        <path fill="#3EBAAA" d="M33.038187,78.4479722 L33.038187,104.802243 L40.8961438,76.072275 C38.481464,76.1027204 35.8259264,76.8677867 33.038187,78.4479722 Z" opacity=".964"/>
        <polygon fill="#5189B5" points="66.737 59.346 106.383 36.874 106.383 89.582 66.737 112.055" opacity=".18"/>
        <path fill="#4593A0" d="M121.580528,10.9776704 L143.211439,-1.28346608 C145.132347,-2.37230204 146.68955,-1.46393134 146.68955,0.74117513 L146.68955,116.85137 L121.580528,131.084018 L121.580528,10.9776704 Z" opacity=".509"/>
        <path fill="#5189B5" d="M13.2152748 157.945253C13.2152748 157.468536 13.5165385 156.911314 13.8812421 156.704587L52.8558957 134.612427C53.2236992 134.403943 53.5218629 134.617426 53.5218629 135.098107L53.5218629 135.963985C53.5218629 136.440702 53.2205993 136.997924 52.8558957 137.20465L13.8812421 159.296811C13.5134385 159.505294 13.2152748 159.291812 13.2152748 158.811131L13.2152748 157.945253zM13.2152748 165.721923C13.2152748 165.245206 13.5165385 164.687984 13.8812421 164.481257L52.8558957 142.389097C53.2236992 142.180613 53.5218629 142.394096 53.5218629 142.874777L53.5218629 143.740655C53.5218629 144.217372 53.2205993 144.774594 52.8558957 144.98132L13.8812421 167.073481C13.5134385 167.281964 13.2152748 167.068482 13.2152748 166.587801L13.2152748 165.721923z"/>
        <path fill="#4593A0" d="M66.076374 135.758453C66.076374 135.281735 66.3762389 134.725306 66.7368804 134.520882L93.8287084 119.164312C94.193496 118.957538 94.4892148 119.172406 94.4892148 119.653087L94.4892148 120.518965C94.4892148 120.995682 94.1893499 121.552111 93.8287084 121.756535L66.7368804 137.113106C66.3720928 137.31988 66.076374 137.105012 66.076374 136.62433L66.076374 135.758453zM66.076374 127.981783C66.076374 127.505065 66.3776377 126.947843 66.7423413 126.741117L105.716995 104.648957C106.084798 104.440473 106.382962 104.653955 106.382962 105.134636L106.382962 106.000514C106.382962 106.477231 106.081698 107.034453 105.716995 107.24118L66.7423413 129.33334C66.3745377 129.541824 66.076374 129.328342 66.076374 128.84766L66.076374 127.981783z"/>
        <path fill="#5189B5" d="M13.2152748,173.498593 C13.2152748,173.021876 13.5165385,172.464654 13.8812421,172.257927 L52.8558957,150.165767 C53.2236992,149.957283 53.5218629,150.170766 53.5218629,150.651447 L53.5218629,151.517325 C53.5218629,151.994042 53.2205993,152.551264 52.8558957,152.75799 L13.8812421,174.850151 C13.5134385,175.058634 13.2152748,174.845152 13.2152748,174.364471 L13.2152748,173.498593 Z"/>
        <polygon fill="#5189B5" points="70.702 65.74 75.988 62.743 75.988 101.627 70.702 104.623"/>
        <polygon fill="#5189B5" points="77.309 72.363 82.595 69.367 82.595 97.881 77.309 100.878"/>
        <polygon fill="#5189B5" points="97.132 67.175 102.418 64.179 102.418 86.645 97.132 89.641"/>
        <polygon fill="#5189B5" points="83.917 72.938 89.203 69.942 89.203 94.136 83.917 97.132"/>
        <polygon fill="#5189B5" points="90.525 78.698 95.811 75.701 95.811 90.39 90.525 93.387"/>
        <polygon fill="#479EA8" points="70.702 71.788 75.988 68.792 75.988 101.627 70.702 104.623"/>
        <polygon fill="#479EA8" points="77.309 81.868 82.595 78.872 82.595 97.881 77.309 100.878"/>
        <polygon fill="#479EA8" points="83.917 82.443 89.203 79.447 89.203 94.416 83.917 97.412"/>
        <polygon fill="#479EA8" points="90.525 86.474 95.811 83.478 95.811 90.39 90.525 93.387"/>
        <polygon fill="#479EA8" points="97.132 77.544 102.418 74.548 102.418 86.645 97.132 89.641"/>
      </g>
    </g>
    <g transform="translate(293 257)">
      <polygon fill="#F3F5FA" points="100.86 32.399 221.169 102.095 239.158 91.202 119.773 21.062"/>
      <polygon fill="#BFFBF3" points="117.931 0 99.581 10.599 208.579 72.691 226.93 62.091"/>
      <polygon fill="#64D9B3" points="99.58 10.6 99.58 31.626 208.579 94.433 208.579 72.692"/>
      <polygon fill="#44C7A5" points="226.931 62.091 226.931 83.756 208.579 94.433 208.579 72.692"/>
      <polygon fill="#F3F5FA" points="67.667 50.732 86.581 39.394 205.966 109.536 187.977 120.428"/>
      <polygon fill="#69E1B5" points="154.421 78.983 172.773 68.382 84.738 18.333 66.387 28.933"/>
      <polygon fill="#5DCDB6" points="66.387 28.934 66.387 49.959 154.421 100.726 154.421 78.984"/>
      <polygon fill="#4ABF98" points="172.773 68.383 172.773 90.048 154.421 100.726 154.421 78.984"/>
      <polygon fill="#F3F5FA" points="34.474 69.066 53.388 57.727 172.773 127.869 154.784 138.761"/>
      <polygon fill="#80EADB" points="61.254 62.316 79.606 51.716 51.545 36.666 33.193 47.266"/>
      <polygon fill="#63DEBE" points="33.193 47.267 33.193 68.293 61.254 84.059 61.254 62.317"/>
      <polygon fill="#5AD9C7" points="79.606 51.717 79.606 73.381 61.254 84.059 61.254 62.317"/>
      <polygon fill="#F3F5FA" points="1.28 87.399 121.59 157.095 139.579 146.202 20.194 76.062"/>
      <polygon fill="#C3FCF5" points="0 65.599 54.841 96.596 73.193 85.995 18.352 55"/>
      <polygon fill="#92EFDF" points="0 86.626 54.841 118.337 54.841 96.596 0 65.599"/>
      <polygon fill="#76E5CF" points="73.192 85.995 73.192 107.66 54.84 118.337 54.84 96.596"/>
    </g>
    <g transform="translate(260 94)">
      <g transform="translate(36.127 .188)">
        <mask id="development-t" fill="#fff">
          <use xlink:href="#development-s"/>
        </mask>
        <path fill="#FFD876" d="M5.64642254,2.9982963 C5.69522535,2.98381481 5.74402817,2.9687037 5.79219718,2.95737037 C5.83783099,2.94540741 5.88219718,2.93596296 5.92656338,2.92777778 C5.98487324,2.91581481 6.0431831,2.90637037 6.10085915,2.89944444 C6.1338169,2.89566667 6.16614085,2.89125926 6.19909859,2.88874074 C6.27071831,2.88307407 6.34107042,2.88118519 6.41015493,2.88307407 C6.4253662,2.88307407 6.44247887,2.88244444 6.45769014,2.88307407 C6.54135211,2.88685185 6.62184507,2.89755556 6.70107042,2.91140741 C6.72008451,2.91518519 6.73973239,2.92022222 6.75874648,2.92462963 C6.82085915,2.93785185 6.88107042,2.95548148 6.94064789,2.975 C6.95839437,2.98192593 6.97740845,2.98696296 6.99578873,2.99388889 C7.06994366,3.02222222 7.14283099,3.05496296 7.21191549,3.094 C7.05409859,3.00459259 6.89564789,2.91455556 6.73783099,2.82514815 C6.36515493,2.61359259 5.99184507,2.40203704 5.61916901,2.19048148 C5.18438028,1.94303704 4.74832394,1.69685185 4.31290141,1.44940741 C3.96684507,1.25296296 3.62078873,1.05651852 3.27473239,0.860074074 C3.18790141,0.810962963 3.10107042,0.763111111 3.01677465,0.710851852 C2.79874648,0.576740741 2.55156338,0.487333333 2.29740845,0.453333333 C2.02614085,0.417444444 1.78402817,0.466555556 1.52353521,0.530777778 C1.4988169,0.537074074 1.4753662,0.542111111 1.45064789,0.548407407 C1.42719718,0.555333333 1.40184507,0.568555556 1.37776056,0.575481481 C1.30170423,0.598148148 1.22438028,0.625851852 1.14642254,0.656703704 C1.11853521,0.668037037 1.0925493,0.674333333 1.06466197,0.685666667 C1.0494507,0.691962963 1.03360563,0.702666667 1.01776056,0.708962963 C0.882760563,0.768777778 0.746492958,0.834888889 0.606422535,0.916740741 L4.87508451,3.33892593 C5.01515493,3.2577037 5.15205634,3.19159259 5.28769014,3.13177778 C5.33015493,3.11288889 5.37261972,3.09588889 5.41571831,3.07951852 C5.49367606,3.0492963 5.5703662,3.02159259 5.64642254,2.9982963" mask="url(#development-t)"/>
      </g>
      <path fill="#A07318" d="M4.47166901,48.2580889 L0.203007042,45.8359037 C0.213147887,46.8653481 0.584556338,47.5869037 1.17716197,47.9224963 L5.44582394,50.3446815 C4.85385211,50.0084593 4.48307746,49.2875333 4.47166901,48.2580889"/>
      <polygon fill="#A07318" points="4.269 28.735 .001 26.312 .203 45.836 4.471 48.258"/>
      <polygon fill="#FFD876" points="36.733 1.105 3.233 20.653 7.502 23.075 41.002 3.527"/>
      <path fill="#EDA024" d="M44.3127042,5.36948148 C44.2911549,3.29737037 42.8093239,2.47255556 41.0017183,3.52718519 L7.50207042,23.0746667 C5.69446479,24.1292963 4.24749296,26.6622963 4.26904225,28.7344074 L4.47185915,48.257963 C4.49340845,50.3294444 5.97523944,51.1542593 7.78221127,50.0996296 L41.2831268,30.5527778 C43.0894648,29.4981481 44.5370704,26.9651481 44.5148873,24.893037 L44.3127042,5.36948148 Z"/>
      <path fill="#FFD876" d="M4.31816197,28.0232407 C4.33020423,27.9363519 4.34541549,27.849463 4.36126056,27.7619444 C4.37266901,27.7021296 4.38280986,27.6429444 4.39485211,27.5837593 C4.40752817,27.5283519 4.42147183,27.4723148 4.43541549,27.4169074 C4.45379577,27.3388333 4.47344366,27.2607593 4.49562676,27.1833148 C4.50893662,27.1379815 4.52224648,27.0926481 4.53619014,27.0479444 C4.56280986,26.9610556 4.59196479,26.8741667 4.62175352,26.7872778 C4.63506338,26.7507593 4.64710563,26.7148704 4.66041549,26.6783519 C4.70478169,26.5580926 4.7523169,26.4378333 4.80302113,26.319463 C4.80872535,26.3049815 4.81506338,26.2923889 4.82140141,26.278537 C4.86766901,26.1721296 4.91710563,26.0657222 4.96907746,25.9605741 C4.98555634,25.9278333 5.00140141,25.8950926 5.01788028,25.8629815 C5.06858451,25.7635 5.12119014,25.6652778 5.17569718,25.5683148 C5.18647183,25.5487963 5.19661268,25.5292778 5.20738732,25.5103889 C5.27266901,25.3964259 5.34111972,25.2843519 5.41210563,25.1747963 C5.43238732,25.1426852 5.45393662,25.1118333 5.47421831,25.0803519 C5.52682394,25.0010185 5.58069718,24.9223148 5.63583803,24.8455 C5.66562676,24.8045741 5.69541549,24.7630185 5.72583803,24.7227222 C5.77400704,24.6578704 5.82344366,24.595537 5.87288028,24.5332037 C5.91471127,24.4803148 5.95654225,24.4286852 5.99900704,24.3776852 C6.04020423,24.3292037 6.08203521,24.2826111 6.1238662,24.2353889 C6.19485211,24.1554259 6.26647183,24.0779815 6.34062676,24.0024259 C6.38689437,23.9552037 6.43189437,23.9086111 6.47879577,23.8632778 C6.51555634,23.8280185 6.5523169,23.7927593 6.58971127,23.7593889 C6.65055634,23.7033519 6.71140141,23.6498333 6.77351408,23.5969444 C6.81154225,23.565463 6.84830282,23.5333519 6.88569718,23.5031296 C6.95351408,23.4489815 7.02259859,23.3973519 7.0910493,23.3469815 C7.12400704,23.3230556 7.15696479,23.2978704 7.18992254,23.2745741 C7.29259859,23.2040556 7.39590845,23.1360556 7.50175352,23.0749815 L3.23309155,20.6527963 C3.12724648,20.7145 3.02330282,20.7812407 2.92062676,20.8523889 C2.88766901,20.8756852 2.85534507,20.9002407 2.82302113,20.9247963 C2.75330282,20.9751667 2.68485211,21.0267963 2.61640141,21.0815741 C2.57900704,21.1111667 2.54161268,21.1426481 2.50485211,21.1747593 C2.44273944,21.2270185 2.38126056,21.2811667 2.3210493,21.3365741 C2.28365493,21.3712037 2.24626056,21.4052037 2.2101338,21.4410926 C2.1873169,21.4625 2.1638662,21.4826481 2.1410493,21.5053148 C2.11696479,21.5292407 2.09541549,21.5563148 2.07196479,21.5802407 C1.99780986,21.6557963 1.92555634,21.7338704 1.85393662,21.8138333 C1.83175352,21.8390185 1.80766901,21.8623148 1.78548592,21.8881296 C1.76647183,21.909537 1.74872535,21.9328333 1.73034507,21.9548704 C1.68788028,22.0058704 1.64541549,22.0581296 1.60358451,22.1103889 C1.57633099,22.1450185 1.54780986,22.1777593 1.52119014,22.2123889 C1.49900704,22.2407222 1.47935915,22.2709444 1.45717606,22.2992778 C1.42675352,22.3408333 1.39696479,22.3817593 1.36654225,22.4233148 C1.34626056,22.4522778 1.32407746,22.4793519 1.30442958,22.5083148 C1.27020423,22.5574259 1.23851408,22.6077963 1.20555634,22.6581667 C1.18464085,22.6890185 1.16309155,22.7205 1.14280986,22.7526111 C1.13457042,22.7652037 1.12506338,22.7784259 1.11619014,22.7916481 C1.05851408,22.8835741 1.00273944,22.9755 0.948866197,23.0693148 C0.945697183,23.0756111 0.941894366,23.0819074 0.938091549,23.0882037 C0.927316901,23.1070926 0.917809859,23.1266111 0.907035211,23.1448704 C0.870274648,23.2109815 0.832246479,23.2777222 0.796753521,23.3450926 C0.780274648,23.3765741 0.765697183,23.4086852 0.74921831,23.4401667 C0.732739437,23.4722778 0.716260563,23.5056481 0.69978169,23.5383889 C0.686471831,23.5673519 0.670626761,23.5956852 0.657316901,23.6240185 C0.620556338,23.7008333 0.586330986,23.7782778 0.552739437,23.8563519 L0.533725352,23.8966481 C0.531823944,23.9004259 0.529922535,23.9042037 0.52865493,23.9086111 C0.486823944,24.0055741 0.448161972,24.1031667 0.410767606,24.2020185 C0.403161972,24.2202778 0.397457746,24.2379074 0.391753521,24.2567963 C0.377809859,24.2920556 0.366401408,24.3279444 0.353091549,24.3638333 C0.336612676,24.4129444 0.317598592,24.4620556 0.301753521,24.5111667 C0.289077465,24.5489444 0.27893662,24.5873519 0.266894366,24.6257593 C0.253584507,24.6710926 0.239007042,24.7157963 0.226964789,24.7611296 C0.218725352,24.7888333 0.209852113,24.816537 0.202246479,24.8442407 C0.188302817,24.8939815 0.178795775,24.9437222 0.166119718,24.993463 C0.152809859,25.0495 0.138232394,25.105537 0.126190141,25.1615741 C0.121753521,25.180463 0.116049296,25.2006111 0.112246479,25.2195 C0.104007042,25.2597963 0.100204225,25.299463 0.0925985915,25.3391296 C0.0767535211,25.4266481 0.0609084507,25.5141667 0.0495,25.6004259 C0.0463309859,25.6243519 0.0399929577,25.6489074 0.0374577465,25.6728333 C0.0342887324,25.6955 0.035556338,25.7169074 0.0330211268,25.7395741 C0.0121056338,25.9328704 -0.00120422535,26.1242778 0.000697183098,26.3119074 L4.26935915,28.7347222 C4.26745775,28.5470926 4.28076761,28.3544259 4.3029507,28.1617593 C4.30738732,28.1151667 4.31182394,28.0692037 4.31816197,28.0232407"/>
      <path fill="#FDCB44" d="M40.9970282,3.52731111 C41.9610423,2.96442222 42.8299859,2.94427407 43.4359014,3.35479259 L30.6863239,23.1150889 L27.1807606,28.548163 C26.388507,29.7753111 25.4130845,30.7273111 24.4338592,31.2983852 C23.454,31.8707185 22.4709718,32.0614963 21.6628732,31.7687185 L18.0863239,30.4660148 L5.08132394,25.7337185 C5.67202817,24.6255704 6.53083099,23.6376815 7.49674648,23.0747926 L40.9970282,3.52731111 Z"/>
      <path fill="#FFB93E" d="M18.086007,30.4661407 L21.6631901,31.7682148 C22.4706549,32.0616222 23.4543169,31.8702148 24.4341761,31.2985111 C25.4134014,30.727437 26.3888239,29.775437 27.1810775,28.5482889 L30.6866408,23.1152148 L43.7030493,27.8695481 C43.1123451,28.9890296 42.2491056,29.9857333 41.2774859,30.5524 L7.77720423,50.0998815 C6.80558451,50.6665481 5.93157042,50.6841778 5.32311972,50.2635852 L18.086007,30.4661407 Z"/>
    </g>
    <g transform="matrix(-1 0 0 1 181 327)">
      <path fill="#5DCDB6" d="M47.2027654,9.47694028 C47.4424568,9.3816625 47.6794321,9.29523194 47.9130123,9.22513472 C48.0508519,9.18362083 48.1880123,9.14687083 48.3231358,9.11352361 C48.4501111,9.08221806 48.5770864,9.05295417 48.7020247,9.02981528 C48.8649877,8.99919028 49.0265926,8.97605139 49.1848025,8.95767639 C49.2744321,8.94814861 50.1408519,8.97537083 50.1605432,9.0570375 C50.3730741,8.98557917 51.2856667,9.09582917 51.4880123,9.16660694 C51.5396173,9.18430139 51.5919012,9.20744028 51.6421481,9.22717639 C51.8472099,9.30680139 52.0454815,9.40071806 52.2349259,9.50824583 L42.3810988,3.86984306 C42.3648025,3.85963472 42.3485062,3.85146806 42.3315309,3.84262083 C41.8277037,3.56087083 41.2648025,3.41455139 40.6957901,3.34037083 C40.4051728,3.30294028 40.1125185,3.2811625 39.8198642,3.26959306 C39.6765926,3.26346806 39.533321,3.26006528 39.3900494,3.25870417 C39.2630741,3.25734306 39.147642,3.2934125 39.0227037,3.31314861 C38.9656667,3.32267639 38.9059136,3.36010694 38.8488765,3.37031528 C38.7239383,3.39413472 38.596963,3.43224583 38.4706667,3.46355139 C38.3864691,3.48396806 38.3049877,3.49962083 38.2201111,3.52344028 C38.1671481,3.53773194 38.1121481,3.56631528 38.0598642,3.58264861 C37.826284,3.65206528 37.5893086,3.73917639 37.3496173,3.83445417 C37.2742469,3.86507917 37.2022716,3.88209306 37.1262222,3.91407917 C37.0990617,3.92632917 37.0712222,3.94334306 37.0440617,3.95559306 C36.7093086,4.10259306 36.3698025,4.2672875 36.0241852,4.46260694 L45.8773333,10.1030514 C46.2229506,9.90773194 46.5624568,9.7430375 46.8972099,9.59671806 C47.0004198,9.55112083 47.1009136,9.51709306 47.2027654,9.47694028"/>
      <path fill="#80EADB" d="M24.2489568,17.2687569 C24.3121049,17.1605486 24.3766111,17.0543819 24.4417963,16.9461736 C24.7955617,16.3602153 25.1629074,15.7824236 25.5506235,15.2216458 C25.5886481,15.1678819 25.6280309,15.1168403 25.6660556,15.0637569 C26.0109938,14.5717153 26.3715494,14.0960069 26.7402531,13.6291458 C26.8726605,13.4617292 27.0064259,13.2956736 27.1415494,13.1316597 C27.4097593,12.8063542 27.6881543,12.4953403 27.9679074,12.1856875 C28.1953765,11.9325208 28.4228457,11.6786736 28.657784,11.4370764 C29.0909938,10.9892708 29.5289568,10.5516736 29.982537,10.1453819 C29.9967963,10.1338125 30.0103765,10.1229236 30.0246358,10.1106736 C30.4897593,9.69553472 30.968463,9.31238194 31.4532778,8.9455625 C31.5788951,8.84960417 31.7051914,8.7556875 31.8328457,8.6638125 C32.3373519,8.29903472 32.8472901,7.95263194 33.3680926,7.64570139 C33.7809321,7.40274306 34.1876605,7.19245139 34.5909938,6.9978125 C34.6989568,6.94609028 34.8048827,6.89709028 34.9108086,6.84877083 C35.2985247,6.67250694 35.6842037,6.50917361 36.0610556,6.37714583 C36.0814259,6.36965972 36.0997593,6.36557639 36.1194506,6.35877083 C36.4542037,6.24375694 36.7794506,6.15664583 37.1046975,6.07497917 C37.2887099,6.02870139 37.4713642,5.98922917 37.6526605,5.95384028 C37.8909938,5.90688194 38.1266111,5.86740972 38.3588333,5.83950694 C38.4939568,5.82317361 38.6297593,5.80615972 38.7621667,5.79663194 C39.0555,5.77349306 39.3427222,5.76600694 39.6251914,5.7728125 C39.6869815,5.77417361 39.7521667,5.77009028 39.8139568,5.7728125 C40.153463,5.79050694 40.482784,5.83134028 40.8046358,5.89122917 C40.8847593,5.90620139 40.9621667,5.92661806 41.0409321,5.94363194 C41.2942037,6.00011806 41.5400062,6.06885417 41.7783395,6.15120139 C41.8550679,6.17774306 41.9317963,6.20088194 42.0058086,6.23014583 C42.3106852,6.34720139 42.6067346,6.48127083 42.8878457,6.64188194 L33.0340185,1.0014375 L32.9606852,0.959243056 C32.7420432,0.838104167 32.5166111,0.729895833 32.2843889,0.634618056 C31.4960556,0.310673611 30.6466111,0.0554652778 29.7829074,0.00646527778 C28.8906852,-0.0438958333 28.1016728,0.219479167 27.2515494,0.433173611 C27.1524136,0.457673611 27.0587099,0.469923611 26.9588951,0.497826389 C26.7307469,0.561798611 26.4985247,0.637340278 26.2669815,0.717645833 C26.2466111,0.723770833 26.2275988,0.729215278 26.2079074,0.736020833 C25.9403765,0.830618056 25.6701296,0.9340625 25.3964877,1.0504375 C25.2844506,1.09739583 25.1703765,1.15660417 25.0576605,1.20764583 C24.9517346,1.25664583 24.8451296,1.30564583 24.7385247,1.35736806 C24.3345123,1.55200694 23.9271049,1.76229861 23.5149444,2.00457639 C22.994142,2.31082639 22.4842037,2.65859028 21.9796975,3.0226875 C21.8527222,3.11524306 21.7257469,3.20915972 21.6001296,3.3044375 C21.1153148,3.6719375 20.6366111,4.05509028 20.1708086,4.46954861 C20.1572284,4.48247917 20.1429691,4.49336806 20.1300679,4.5049375 C19.7647593,4.83160417 19.4062407,5.17120139 19.0558704,5.52372917 C18.9696358,5.61015972 18.8901914,5.70747917 18.8053148,5.79527083 C18.5703765,6.03822917 18.3429074,6.29139583 18.1140802,6.54524306 C17.9463642,6.73239583 17.769821,6.90525694 17.6055,7.09785417 C17.496858,7.2244375 17.3950062,7.36122917 17.2884012,7.49121528 C17.1525988,7.65522917 17.0201914,7.82060417 16.8871049,7.98802083 C16.7716728,8.13434028 16.6508086,8.27385417 16.5374136,8.42289583 C16.2888951,8.74820139 16.0505617,9.08439583 15.8135864,9.42127083 C15.7755617,9.47571528 15.7355,9.5274375 15.6967963,9.58188194 C15.6838951,9.6009375 15.6689568,9.6193125 15.6560556,9.63904861 C15.3912407,10.0235625 15.1338951,10.4148819 14.8846975,10.8123264 C14.7828457,10.9742986 14.687784,11.1410347 14.5886481,11.3050486 C14.524142,11.4132569 14.4589568,11.5201042 14.3951296,11.6289931 C14.3306235,11.7385625 14.2613642,11.8460903 14.198216,11.9570208 C13.9822901,12.3347292 13.7738333,12.7165208 13.5728457,13.1017153 C13.5253148,13.1929097 13.482537,13.2861458 13.4356852,13.3780208 C13.3854383,13.4773819 13.3372284,13.5767431 13.2869815,13.6767847 C13.1925988,13.8687014 13.092784,14.0592569 13.0017963,14.2525347 C12.818463,14.6418125 12.6425988,15.0331319 12.4762407,15.4264931 C12.4538333,15.4788958 12.4321049,15.5312986 12.4096975,15.5837014 L22.2628457,21.2241458 C22.5317346,20.5817014 22.828463,19.9474236 23.1401296,19.3185903 C23.1896975,19.2178681 23.2385864,19.1178264 23.2895123,19.0184653 C23.5903148,18.4257014 23.9114877,17.8424653 24.2489568,17.2687569"/>
      <path fill="#69E1B5" d="M9.92539506,38.9255319 C9.94780247,38.6757681 9.97632099,38.4239625 10.0102716,38.1714764 C10.0489753,37.8910875 10.0965062,37.6100181 10.1487901,37.3275875 C10.1834198,37.1370319 10.2146543,36.9464764 10.2560741,36.7545597 C10.2947778,36.5748931 10.3395926,36.3952264 10.3837284,36.2155597 C10.4448395,35.9644347 10.5066296,35.7133097 10.5779259,35.4621847 C10.6186667,35.3172264 10.6621235,35.1729486 10.7062593,35.0279903 C10.7918148,34.7469208 10.8834815,34.4658514 10.9812593,34.1854625 C11.022,34.0677264 11.0613827,33.9499903 11.1041605,33.8336153 C11.2460741,33.4443375 11.3968148,33.0571014 11.5597778,32.6725875 C11.5753951,32.6365181 11.5923704,32.6018097 11.6079877,32.5664208 C11.7587284,32.2145736 11.9210123,31.8647681 12.0900864,31.5176847 C12.1416914,31.4115181 12.1946543,31.3060319 12.2476173,31.1998653 C12.4044691,30.8874903 12.5681111,30.5785181 12.7385432,30.2722681 C12.7772469,30.2021708 12.8145926,30.1293514 12.8539753,30.0592542 C13.0624321,29.6931153 13.2803951,29.3317403 13.5051481,28.9764903 C13.5689753,28.8771292 13.6355185,28.7804903 13.7007037,28.6811292 C13.8697778,28.4225181 14.0422469,28.1673097 14.2201481,27.9161847 C14.3158889,27.7814347 14.4129877,27.6480458 14.5107654,27.5146569 C14.6642222,27.3084486 14.8203951,27.1056431 14.9786049,26.9048792 C15.1130494,26.7347403 15.2474938,26.5659625 15.3853333,26.4012681 C15.5163827,26.2433792 15.6515062,26.0916153 15.7852716,25.9384903 C16.0107037,25.6826014 16.2408889,25.4335181 16.4751481,25.1912403 C16.6190988,25.0415181 16.7630494,24.8904347 16.9110741,24.7461569 C17.0265062,24.6338653 17.1432963,24.5249764 17.2600864,24.4160875 C17.454284,24.2357403 17.6505185,24.0608375 17.8494691,23.8906986 C17.9669383,23.7906569 18.0850864,23.6885736 18.2039136,23.5919347 C18.4198395,23.4170319 18.6378025,23.2523375 18.8578025,23.0896847 C18.9630494,23.0127819 19.0662593,22.9317958 19.1721852,22.8576153 C19.4994691,22.6289486 19.8287901,22.4118514 20.1642222,22.2144903 C20.4867531,22.0246153 20.8038519,21.8612819 21.1182346,21.7095181 C21.2031111,21.6686847 21.2879877,21.6298931 21.3728642,21.5911014 C21.6736667,21.4549903 21.9717531,21.3277264 22.2630494,21.2242819 L12.4099012,15.5838375 C12.2082346,15.6552958 12.0045309,15.7349208 11.7981111,15.8220319 C11.7064444,15.8601431 11.6127407,15.9091431 11.5210741,15.9506569 C11.4355185,15.9894486 11.350642,16.0275597 11.2650864,16.0690736 C10.9507037,16.2208375 10.6336049,16.3841708 10.3103951,16.5740458 C9.97564198,16.7714069 9.64564198,16.9885042 9.31835802,17.2171708 C9.21311111,17.2906708 9.10990123,17.3716569 9.00601235,17.4485597 C8.78465432,17.6112125 8.56601235,17.7765875 8.35008642,17.9521708 C8.23125926,18.0481292 8.11446914,18.1495319 7.997,18.2495736 C7.79737037,18.4197125 7.60045679,18.5952958 7.40558025,18.7763236 C7.28946914,18.8845319 7.17335802,18.9934208 7.05860494,19.1050319 C6.98934568,19.1730875 6.91737037,19.2350181 6.84879012,19.3044347 C6.7707037,19.3833792 6.69804938,19.4718514 6.62064198,19.5514764 C6.38706173,19.7937542 6.15823457,20.0414764 5.93348148,20.2966847 C5.8628642,20.3769903 5.7861358,20.4504903 5.71687654,20.5321569 C5.65304938,20.6056569 5.59397531,20.6859625 5.53150617,20.7615042 C5.39434568,20.9261986 5.26058025,21.0936153 5.12681481,21.2623931 C5.0432963,21.3685597 4.9557037,21.4692819 4.87422222,21.5761292 C4.79953086,21.6734486 4.7302716,21.7768931 4.65693827,21.8755736 C4.55916049,22.0082819 4.46274074,22.1403097 4.36767901,22.2743792 C4.3065679,22.3614903 4.24138272,22.4445181 4.18095062,22.5329903 C4.06551852,22.6997264 3.95755556,22.8712264 3.84619753,23.0413653 C3.78169136,23.1400458 3.71582716,23.2360042 3.65335802,23.3360458 C3.62891358,23.3734764 3.6024321,23.4095458 3.57934568,23.4476569 C3.39397531,23.7423375 3.21471605,24.0417819 3.0415679,24.3439486 C3.02798765,24.3691292 3.01508642,24.3943097 3.00082716,24.4201708 C2.96076543,24.4889069 2.92409877,24.5603653 2.88539506,24.6304625 C2.77403704,24.8319069 2.66064198,25.0333514 2.55403704,25.2381986 C2.49835802,25.3436847 2.44879012,25.4512125 2.39514815,25.5573792 C2.34150617,25.6642264 2.2878642,25.7703931 2.23625926,25.8779208 C2.19348148,25.9650319 2.14798765,26.0514625 2.10588889,26.1392542 C1.98366667,26.3992264 1.86823457,26.6612403 1.75551852,26.9232542 C1.73922222,26.9600042 1.72224691,26.9953931 1.70662963,27.0314625 C1.70323457,27.0409903 1.69848148,27.0505181 1.69440741,27.0593653 C1.56064198,27.3744625 1.43366667,27.6922819 1.31416049,28.0107819 C1.29175309,28.0713514 1.27341975,28.1319208 1.25101235,28.1924903 C1.20823457,28.3102264 1.16885185,28.4279625 1.1274321,28.5463792 C1.07379012,28.7008653 1.01539506,28.8546708 0.96582716,29.0105181 C0.924407407,29.1350597 0.891814815,29.2602819 0.854469136,29.3848236 C0.809654321,29.5311431 0.765518519,29.6767819 0.724098765,29.8231014 C0.698975309,29.9115736 0.669098765,30.0000458 0.645333333,30.0885181 C0.602555556,30.2498097 0.569962963,30.4111014 0.531259259,30.5730736 C0.487123457,30.7534208 0.440950617,30.9337681 0.402925926,31.1134347 C0.389345679,31.1753653 0.371691358,31.2379764 0.358790123,31.3005875 C0.33162963,31.4305736 0.318728395,31.5591986 0.294962963,31.6885042 C0.243358025,31.9702542 0.195148148,32.2499625 0.157123457,32.5296708 C0.146938272,32.6065736 0.128604938,32.6855181 0.119777778,32.7624208 C0.0973703704,32.9380042 0.0878641975,33.1108653 0.0715679012,33.2850875 C0.061382716,33.4096292 0.0464444444,33.5334903 0.0382962963,33.6573514 C0.0118148148,34.0479903 -0.00312345679,34.4359069 0.000950617284,34.8183792 C0.0349012346,38.1401708 1.22588889,40.4731153 3.12508642,41.5606431 L12.9782346,47.2010875 C11.079037,46.1142403 9.88804938,43.7806153 9.85409877,40.4588236 C9.85002469,40.0763514 9.86564198,39.6884347 9.89144444,39.2977958 C9.9002716,39.1746153 9.91385185,39.0500736 9.92539506,38.9255319"/>
      <g transform="translate(9.506 5.698)">
        <mask id="development-w" fill="#fff">
          <use xlink:href="#development-u"/>
        </mask>
        <path fill="url(#development-v)" d="M23.861716,1.94815833 C29.4981975,-1.37023056 34.3517778,-0.156119444 36.3711605,4.40564444 C41.3408519,1.59086667 45.3850494,3.91496389 45.4441235,9.686075 C45.5045556,15.5279639 41.4623951,22.6676722 36.4112222,25.6410194 C34.3490617,26.8558111 26.6449877,31.4624917 24.1808519,32.9127556 C21.5734444,34.4480889 13.2283827,39.3610194 10.9068395,40.7268944 C5.1481358,44.1174222 0.416777778,41.4299083 0.347518519,34.7611444 C0.279617284,28.1005472 4.89893827,19.9073389 10.658321,16.5168111 C11.3794321,16.0921444 12.0815309,15.7661583 12.7571481,15.5266028 C15.1031358,9.90793611 19.185358,4.70100556 23.861716,1.94815833" mask="url(#development-w)"/>
      </g>
    </g>
    <g transform="translate(396 8)">
      <path fill="url(#development-r)" d="M0,6.0008774 C0,2.68668433 2.33495414,1.34815412 5.19298767,2.99832344 L52.5392102,30.3350509 C54.4505516,31.4386199 56,34.1165352 56,36.3251958 L56,147.333239 L0,115 L0,6.0008774 Z"/>
      <polygon fill="#5ACFC6" points="5 7.887 51 34.446 51 72.446 5 45.887"/>
      <polygon fill="#5ACFC6" points="5 50.887 17 57.815 17 69.815 5 62.887"/>
      <path fill="#4593A0" d="M6.00355521 67.4663283L49.9964448 92.8669109C50.550693 93.1869223 51 93.8902077 51 94.4463429 51 94.9986276 50.5447218 95.1834747 49.9964448 94.8669109L6.00355521 69.4663283C5.44930697 69.1463169 5 68.4430315 5 67.8868964 5 67.3346116 5.45527816 67.1497645 6.00355521 67.4663283zM6.00355521 71.4663283L49.9964448 96.8669109C50.550693 97.1869223 51 97.8902077 51 98.4463429 51 98.9986276 50.5447218 99.1834747 49.9964448 98.8669109L6.00355521 73.4663283C5.44930697 73.1463169 5 72.4430315 5 71.8868964 5 71.3346116 5.45527816 71.1497645 6.00355521 71.4663283zM6.00355521 75.4663283L49.9964448 100.866911C50.550693 101.186922 51 101.890208 51 102.446343 51 102.998628 50.5447218 103.183475 49.9964448 102.866911L6.00355521 77.4663283C5.44930697 77.1463169 5 76.4430315 5 75.8868964 5 75.3346116 5.45527816 75.1497645 6.00355521 75.4663283z"/>
      <polygon fill="#5ACFC6" points="39 70.518 51 77.446 51 89.446 39 82.518"/>
      <polygon fill="#5ACFC6" points="22 60.702 34 67.631 34 79.631 22 72.702"/>
      <path fill="#479EA8" d="M10.9900994,88.3454556 L45.0099006,107.987784 C48.3181411,109.897893 51,114.139377 51,117.446343 C51,120.760051 48.3111444,121.893853 45.0099006,119.987784 L10.9900994,100.345456 C7.68185887,98.4353461 5,94.1938621 5,90.8868964 C5,87.5731879 7.68885565,86.4393859 10.9900994,88.3454556 Z"/>
      <path fill="#5894BA" fill-rule="nonzero" d="M27.9736842 45.0987938C32.3552632 47.6286267 35.9473684 46.1500023 35.9473684 41.7289496 35.9473684 37.307897 32.3947368 31.7040496 27.9736842 29.1514254 23.5526316 26.5988013 20 28.100217 20 32.5212697 20 36.9423223 23.5921053 42.568961 27.9736842 45.0987938zM33.8421053 49.5397301L33.6842105 49.448565 33.6052632 49.4029824 33.4868421 49.3346085 33.4078947 49.2890259C33.3684211 49.2662347 33.3289474 49.2829171 33.2894737 49.2601258 33.1710526 49.2312256 33.1315789 49.247908 33.0526316 49.2417991 31.5526316 49.4415197 29.8157895 48.9913346 27.9605263 47.9201441 26.1052632 46.8489536 24.3684211 45.2935054 22.8684211 43.361647 22.8289474 43.2993821 22.75 43.2143258 22.6710526 43.1292695 22.5921053 43.083687 22.5526316 43.021422 22.4736842 42.9758394L22.3947368 42.9302569 22.2763158 42.861883 22.1973684 42.8163004 22.0789474 42.7479266C16.7105263 40.8719957 13 43.3875095 13 48.8743516L13 50.0585621C13 50.6111937 13.4342105 51.2961084 13.9868421 51.6151864L41.8947368 67.7286263C42.4473684 68.0477044 42.8815789 67.864198 42.8815789 67.3115664L42.8815789 66.1273559C42.8815789 60.6799875 39.1710526 53.8402381 33.8421053 49.5397301z"/>
    </g>
    <g transform="matrix(-1 0 0 1 844.341 0)">
      <use fill="#000" filter="url(#development-x)" xlink:href="#development-y"/>
      <use fill="#D4DDEC" xlink:href="#development-y"/>
    </g>
  </g>
</svg>
